<svg width="33" height="22" viewBox="0 0 33 22" fill="none" xmlns="http://www.w3.org/2000/svg">
<path opacity="0.5" d="M1.74171 21.3654C1.23371 21.3654 0.798286 21.184 0.435429 20.8211C0.145143 20.4582 0 20.0228 0 19.5148C0 19.0068 0.108857 18.4262 0.326571 17.7731L6.096 2.85967C6.45886 1.98881 6.858 1.37195 7.29343 1.0091C7.72886 0.573669 8.382 0.355957 9.25286 0.355957H12.8451C13.4257 0.355957 13.8974 0.573669 14.2603 1.0091C14.478 1.29938 14.5869 1.66224 14.5869 2.09767C14.5869 2.31538 14.5506 2.5331 14.478 2.75081L12.0831 18.2085C11.7929 20.3131 10.7769 21.3654 9.03514 21.3654H1.74171ZM19.1589 21.3654C18.6509 21.3654 18.2154 21.184 17.8526 20.8211C17.5623 20.4582 17.4171 20.0228 17.4171 19.5148C17.4171 18.7891 17.526 18.2085 17.7437 17.7731L23.5131 2.85967C23.876 1.98881 24.2751 1.37195 24.7106 1.0091C25.146 0.573669 25.7991 0.355957 26.67 0.355957H30.2623C30.8429 0.355957 31.3146 0.573669 31.6774 1.0091C31.8951 1.29938 32.004 1.66224 32.004 2.09767C32.004 2.31538 31.9677 2.5331 31.8951 2.75081L29.5003 18.2085C29.21 20.3131 28.194 21.3654 26.4523 21.3654H19.1589Z" fill="#D8AA5B"/>
</svg>
