<svg width="38" height="39" viewBox="0 0 38 39" fill="none" xmlns="http://www.w3.org/2000/svg">
<g clip-path="url(#clip0)">
<path d="M26.4868 0.995117H4.56199C2.2088 0.998162 0.301873 2.90509 0.298828 5.25827V27.1325C0.301873 29.4857 2.2088 31.3926 4.56199 31.3957H11.2612V30.1776H4.56199C2.88108 30.1757 1.51885 28.8134 1.51687 27.1325V16.8297H5.42801C5.78894 16.8033 6.06018 16.4893 6.03376 16.1283C6.02866 16.0588 6.01252 15.9904 5.98588 15.9259C5.44461 14.6942 6.0043 13.2569 7.23605 12.7156C8.4678 12.1743 9.90509 12.734 10.4464 13.9658C10.7208 14.5903 10.7208 15.3014 10.4464 15.9259C10.2959 16.2406 10.4292 16.6177 10.7439 16.7681C10.8252 16.807 10.9141 16.828 11.0042 16.8298H14.9154V20.4839C14.7142 20.4497 14.5104 20.4328 14.3063 20.4334C12.2882 20.4327 10.6517 22.0681 10.6509 24.0862C10.6504 25.5402 11.5119 26.856 12.8447 27.4371L13.3319 26.3214C12.0982 25.7847 11.5331 24.3495 12.0697 23.1158C12.4569 22.2256 13.3356 21.6503 14.3063 21.6514C14.642 21.6513 14.9739 21.7214 15.2808 21.8573C15.589 21.9918 15.948 21.8509 16.0826 21.5427C16.1161 21.466 16.1333 21.3831 16.1334 21.2994V16.8297H19.2303C19.1957 17.0308 19.1783 17.2346 19.1785 17.4387C19.1822 19.174 20.4024 20.6688 22.1018 21.0198L22.3454 19.8267C21.2125 19.5923 20.3991 18.5956 20.3966 17.4387C20.3965 17.1031 20.4666 16.7712 20.6024 16.4643C20.7369 16.156 20.5961 15.797 20.2879 15.6625C20.2111 15.629 20.1283 15.6117 20.0446 15.6117H16.1334V12.5148C16.3345 12.5494 16.5383 12.5668 16.7424 12.5665C18.7606 12.5665 20.3966 10.9306 20.3966 8.91241C20.3966 6.89426 18.7606 5.25827 16.7424 5.25827C16.5383 5.25805 16.3345 5.2754 16.1334 5.31004V2.21316H26.4868C28.1677 2.21514 29.5299 3.57737 29.5319 5.25827V15.6117H25.6208C25.2844 15.6118 25.0119 15.8847 25.012 16.221C25.0121 16.3047 25.0294 16.3876 25.0629 16.4643C25.1987 16.7712 25.2688 17.1031 25.2687 17.4387H26.4868C26.487 17.2346 26.4697 17.0308 26.435 16.8297H30.1409C30.4773 16.8297 30.7499 16.557 30.7499 16.2207V5.25827C30.7469 2.90509 28.84 0.998162 26.4868 0.995117ZM16.7424 6.47632C18.0878 6.47632 19.1785 7.567 19.1785 8.91241C19.1785 10.2578 18.0878 11.3485 16.7424 11.3485C16.4068 11.3486 16.0749 11.2785 15.768 11.1426C15.4598 11.0081 15.1007 11.149 14.9662 11.4572C14.9327 11.5339 14.9154 11.6168 14.9154 11.7005V15.5611H11.8227C11.8533 15.3765 11.8691 15.1898 11.8703 15.0026C11.8703 14.9917 11.8703 14.9819 11.8703 14.971C11.8703 14.96 11.8703 14.9582 11.8703 14.9521C11.8703 12.9339 10.2343 11.2979 8.21612 11.2979C6.19797 11.2979 4.56199 12.9339 4.56199 14.9521C4.56199 14.9582 4.56199 14.9649 4.56199 14.971C4.56199 14.9771 4.56199 14.9917 4.56199 15.0026C4.56313 15.1898 4.57896 15.3765 4.60949 15.5611H1.51687V5.25827C1.51885 3.57737 2.88108 2.21514 4.56199 2.21316H14.9154V6.1243C14.9155 6.46064 15.1884 6.73317 15.5247 6.73302C15.6084 6.73295 15.6913 6.71567 15.768 6.68217C16.0749 6.54636 16.4068 6.47624 16.7424 6.47632Z" fill="#BFA161"/>
<path d="M35.536 27.172L30.4159 23.6464L28.4494 18.3924C28.3321 18.0771 27.9814 17.9167 27.6662 18.034C27.6549 18.0382 27.6437 18.0428 27.6327 18.0476L23.674 19.7986C23.3773 19.9296 23.2354 20.2703 23.3513 20.5733C23.417 20.7438 23.4786 20.8729 23.5437 21.0069C23.6089 21.1409 23.6692 21.2663 23.7429 21.4643C24.2156 22.7275 23.5791 24.1354 22.3184 24.6147C21.0582 25.086 19.6546 24.4466 19.1832 23.1864C19.065 22.8703 19.0137 22.5332 19.0327 22.1963C19.0503 21.8604 18.7923 21.5738 18.4565 21.5561C18.3723 21.5517 18.2882 21.5648 18.2093 21.5946L13.9778 23.1884C13.6636 23.3068 13.5045 23.6571 13.6221 23.9716L15.141 28.0295C14.9397 28.0662 14.742 28.1208 14.5503 28.1927C12.6551 28.899 11.6913 31.0079 12.3975 32.9031C13.1038 34.7983 15.2127 35.7621 17.1079 35.0558C17.303 34.9831 17.4916 34.8939 17.6715 34.7891L18.7605 37.6978C18.8785 38.0128 19.2294 38.1724 19.5444 38.0544C19.5448 38.0543 19.5451 38.0541 19.5455 38.054L25.5797 35.7806C25.9587 36.5953 26.6562 37.2181 27.5085 37.5029L27.8934 36.3457C27.3914 36.1766 26.9742 35.8201 26.7289 35.3506L28.5651 34.6593C29.1683 36.3558 30.775 37.4882 32.5755 37.4858V36.2678C30.898 36.2575 29.5407 34.9001 29.5304 33.2227C29.5304 33.0611 29.4662 32.9063 29.352 32.7921L27.2313 30.6715C26.9169 30.3543 26.8815 29.8551 27.1479 29.4967C27.3031 29.2872 27.5426 29.1567 27.8026 29.1398C28.063 29.1178 28.3195 29.2138 28.5018 29.401L32.754 33.6532L33.6151 32.7921L32.3569 31.5338C32.6669 30.6068 32.6478 29.6013 32.3027 28.6867L31.1614 25.6385L34.8417 28.1726C35.3295 28.5151 35.6202 29.0736 35.6206 29.6696V37.5364H36.8387V29.6696C36.8378 28.6744 36.3516 27.7422 35.536 27.172ZM31.162 29.1136C31.3302 29.5608 31.3911 30.0411 31.3398 30.5162L29.3629 28.5399C28.5469 27.703 27.2071 27.6862 26.3702 28.5021C25.5333 29.3181 25.5165 30.658 26.3324 31.4949C26.3448 31.5076 26.3574 31.5202 26.3702 31.5326L28.2965 33.459L19.6898 36.7008L18.529 33.599C18.4568 33.4063 18.292 33.2632 18.0911 33.2184C18.0477 33.2088 18.0034 33.2039 17.959 33.2038C17.7996 33.2036 17.6466 33.266 17.5327 33.3773C16.5547 34.3013 15.0128 34.2575 14.0889 33.2795C13.1649 32.3016 13.2087 30.7597 14.1867 29.8357C14.4168 29.6184 14.6869 29.448 14.9821 29.334C15.176 29.2621 15.3785 29.2163 15.5844 29.1976C15.7111 29.182 15.8388 29.1778 15.9663 29.1848C16.3021 29.2023 16.5888 28.9444 16.6063 28.6085C16.6108 28.525 16.5979 28.4415 16.5686 28.3632L14.9778 24.1159L17.878 23.0239C18.2586 25.0058 20.1738 26.3039 22.1558 25.9233C22.3583 25.8844 22.5571 25.8284 22.7502 25.756C24.6387 25.0395 25.5932 22.9317 24.886 21.0397C24.83 20.8899 24.7794 20.7711 24.7307 20.6651L27.5322 19.4246L31.162 29.1136Z" fill="white"/>
</g>
<defs>
<clipPath id="clip0">
<rect width="37.0983" height="37.0983" fill="white" transform="translate(0.0195312 0.995117)"/>
</clipPath>
</defs>
</svg>
