<svg width="38" height="38" viewBox="0 0 38 38" fill="none" xmlns="http://www.w3.org/2000/svg">
<g clip-path="url(#clip0)">
<path d="M26.4668 0.253174H4.54197C2.18878 0.256219 0.281854 2.16314 0.278809 4.51633V26.3906C0.281854 28.7438 2.18878 30.6507 4.54197 30.6537H11.2412V29.4357H4.54197C2.86106 29.4337 1.49883 28.0715 1.49685 26.3906V16.0878H5.408C5.76892 16.0613 6.04016 15.7474 6.01374 15.3864C6.00864 15.3168 5.9925 15.2484 5.96586 15.184C5.42459 13.9522 5.98428 12.5149 7.21603 11.9737C8.44778 11.4324 9.88507 11.9921 10.4263 13.2238C10.7008 13.8484 10.7008 14.5594 10.4263 15.184C10.2759 15.4987 10.4091 15.8757 10.7238 16.0262C10.8052 16.0651 10.8941 16.0861 10.9842 16.0878H14.8953V19.742C14.6941 19.7077 14.4904 19.6908 14.2863 19.6914C12.2682 19.6907 10.6317 21.3262 10.6309 23.3443C10.6304 24.7982 11.4919 26.1141 12.8247 26.6952L13.3119 25.5794C12.0782 25.0427 11.5131 23.6076 12.0497 22.3739C12.4369 21.4837 13.3156 20.9084 14.2863 20.9095C14.622 20.9094 14.9539 20.9795 15.2608 21.1153C15.569 21.2498 15.928 21.109 16.0625 20.8008C16.096 20.724 16.1133 20.6412 16.1134 20.5575V16.0878H19.2103C19.1756 16.2889 19.1583 16.4927 19.1585 16.6968C19.1622 18.432 20.3824 19.9269 22.0818 20.2778L22.3254 19.0848C21.1925 18.8504 20.3791 17.8537 20.3765 16.6968C20.3765 16.3611 20.4466 16.0292 20.5824 15.7223C20.7169 15.4141 20.5761 15.0551 20.2678 14.9206C20.1911 14.8871 20.1083 14.8698 20.0245 14.8697H16.1134V11.7728C16.3145 11.8075 16.5183 11.8248 16.7224 11.8246C18.7406 11.8246 20.3765 10.1886 20.3765 8.17047C20.3765 6.15232 18.7406 4.51633 16.7224 4.51633C16.5183 4.5161 16.3145 4.53346 16.1134 4.5681V1.47122H26.4668C28.1477 1.4732 29.5099 2.83543 29.5119 4.51633V14.8697H25.6007C25.2644 14.8699 24.9919 15.1427 24.992 15.479C24.9921 15.5628 25.0094 15.6456 25.0429 15.7223C25.1787 16.0292 25.2488 16.3611 25.2487 16.6968H26.4668C26.467 16.4927 26.4496 16.2889 26.415 16.0878H30.1209C30.4572 16.0878 30.7299 15.8151 30.7299 15.4787V4.51633C30.7269 2.16314 28.82 0.256219 26.4668 0.253174ZM16.7224 5.73438C18.0678 5.73438 19.1585 6.82506 19.1585 8.17047C19.1585 9.51587 18.0678 10.6066 16.7224 10.6066C16.3868 10.6066 16.0548 10.5365 15.748 10.4007C15.4397 10.2662 15.0807 10.407 14.9462 10.7153C14.9127 10.792 14.8954 10.8748 14.8953 10.9586V14.8192H11.8027C11.8333 14.6346 11.8491 14.4478 11.8502 14.2607C11.8502 14.2497 11.8502 14.24 11.8502 14.229C11.8502 14.2181 11.8502 14.2162 11.8502 14.2101C11.8502 12.192 10.2142 10.556 8.1961 10.556C6.17795 10.556 4.54197 12.192 4.54197 14.2101C4.54197 14.2162 4.54197 14.2229 4.54197 14.229C4.54197 14.2351 4.54197 14.2497 4.54197 14.2607C4.54311 14.4478 4.55894 14.6346 4.58947 14.8192H1.49685V4.51633C1.49883 2.83543 2.86106 1.4732 4.54197 1.47122H14.8953V5.38236C14.8955 5.71869 15.1683 5.99123 15.5047 5.99108C15.5884 5.991 15.6712 5.97372 15.748 5.94023C16.0548 5.80441 16.3868 5.7343 16.7224 5.73438Z" fill="#BFA161"/>
<path d="M35.5174 26.4301L30.3974 22.9045L28.4308 17.6505C28.3135 17.3352 27.9629 17.1748 27.6476 17.2921C27.6364 17.2963 27.6252 17.3009 27.6141 17.3058L23.6555 19.0567C23.3587 19.1877 23.2168 19.5284 23.3327 19.8314C23.3985 20.0019 23.46 20.131 23.5252 20.265C23.5903 20.399 23.6506 20.5244 23.7243 20.7224C24.1971 21.9856 23.5606 23.3935 22.2998 23.8729C21.0397 24.3442 19.636 23.7048 19.1646 22.4445C19.0464 22.1285 18.9952 21.7913 19.0141 21.4544C19.0318 21.1185 18.7738 20.8319 18.4379 20.8143C18.3537 20.8099 18.2696 20.8229 18.1907 20.8527L13.9592 22.4465C13.6451 22.5649 13.486 22.9152 13.6036 23.2297L15.1225 27.2876C14.9211 27.3243 14.7234 27.3789 14.5317 27.4509C12.6365 28.1571 11.6727 30.266 12.379 32.1612C13.0852 34.0564 15.1941 35.0202 17.0893 34.3139C17.2844 34.2412 17.473 34.152 17.653 34.0472L18.7419 36.9559C18.8599 37.2709 19.2108 37.4305 19.5259 37.3125C19.5262 37.3124 19.5265 37.3122 19.5269 37.3121L25.5611 35.0387C25.9402 35.8534 26.6376 36.4762 27.4899 36.761L27.8748 35.6038C27.3728 35.4347 26.9556 35.0782 26.7103 34.6087L28.5466 33.9175C29.1497 35.614 30.7565 36.7463 32.557 36.7439V35.5259C30.8795 35.5156 29.5221 34.1582 29.5119 32.4808C29.5119 32.3192 29.4476 32.1644 29.3334 32.0502L27.2128 29.9296C26.8984 29.6124 26.8629 29.1132 27.1294 28.7548C27.2845 28.5453 27.524 28.4149 27.7841 28.3979C28.0445 28.376 28.301 28.4719 28.4832 28.6592L32.7354 32.9114L33.5966 32.0502L32.3383 30.792C32.6483 29.8649 32.6292 28.8594 32.2841 27.9448L31.1428 24.8966L34.8231 27.4308C35.311 27.7732 35.6016 28.3317 35.6021 28.9277V36.7945H36.8201V28.9277C36.8193 27.9325 36.3331 27.0003 35.5174 26.4301ZM31.1434 28.3717C31.3117 28.8189 31.3726 29.2992 31.3213 29.7743L29.3444 27.798C28.5284 26.9611 27.1885 26.9443 26.3516 27.7602C25.5148 28.5763 25.4979 29.9161 26.3139 30.753C26.3263 30.7657 26.3388 30.7783 26.3516 30.7907L28.278 32.7171L19.6713 35.9589L18.5105 32.8572C18.4382 32.6644 18.2735 32.5213 18.0726 32.4765C18.0292 32.4669 17.9849 32.462 17.9404 32.4619C17.7811 32.4617 17.6281 32.5241 17.5141 32.6355C16.5362 33.5594 14.9943 33.5157 14.0703 32.5376C13.1463 31.5597 13.1901 30.0178 14.1681 29.0938C14.3982 28.8765 14.6683 28.7061 14.9635 28.5921C15.1574 28.5202 15.3599 28.4744 15.5658 28.4557C15.6925 28.4401 15.8203 28.4359 15.9477 28.4429C16.2836 28.4605 16.5702 28.2025 16.5878 27.8666C16.5922 27.7831 16.5793 27.6996 16.55 27.6213L14.9593 23.374L17.8594 22.282C18.2401 24.2639 20.1553 25.562 22.1372 25.1814C22.3397 25.1425 22.5385 25.0866 22.7316 25.0141C24.6201 24.2976 25.5747 22.1898 24.8674 20.2978C24.8114 20.148 24.7609 20.0292 24.7121 19.9233L27.5136 18.6827L31.1434 28.3717Z" fill="#111111"/>
</g>
<defs>
<clipPath id="clip0">
<rect width="37.0983" height="37.0983" fill="white" transform="translate(0.000488281 0.253174)"/>
</clipPath>
</defs>
</svg>
