<svg width="45" height="45" viewBox="0 0 45 45" fill="none" xmlns="http://www.w3.org/2000/svg">
<path d="M0.523438 22.4311C0.523438 10.2515 10.4018 0.37793 22.5875 0.37793C34.7731 0.37793 44.6515 10.2515 44.6515 22.4311C44.6515 34.6107 34.7731 44.4842 22.5875 44.4842C10.4018 44.4842 0.523438 34.6107 0.523438 22.4311Z" fill="url(#paint0_linear)"/>
<mask id="mask0" mask-type="alpha" maskUnits="userSpaceOnUse" x="0" y="0" width="45" height="45">
<path fill-rule="evenodd" clip-rule="evenodd" d="M0.523438 22.4311C0.523438 10.2515 10.4018 0.37793 22.5875 0.37793C34.7731 0.37793 44.6515 10.2515 44.6515 22.4311C44.6515 34.6107 34.7731 44.4842 22.5875 44.4842C10.4018 44.4842 0.523438 34.6107 0.523438 22.4311Z" fill="white"/>
</mask>
<g mask="url(#mask0)">
<path fill-rule="evenodd" clip-rule="evenodd" d="M22.5889 10.6699C19.393 10.6699 18.9919 10.6839 17.7367 10.741C16.484 10.7983 15.6288 10.9966 14.8806 11.2874C14.1067 11.5878 13.4501 11.9897 12.796 12.6437C12.1415 13.2975 11.7394 13.9537 11.4379 14.727C11.1461 15.4751 10.9475 16.33 10.8912 17.5817C10.835 18.8363 10.8203 19.2374 10.8203 22.4317C10.8203 25.626 10.8345 26.0257 10.8914 27.2803C10.949 28.5324 11.1474 29.3871 11.4381 30.1349C11.7389 30.9085 12.141 31.5647 12.7953 32.2185C13.4491 32.8728 14.1057 33.2756 14.8792 33.576C15.6279 33.8669 16.4832 34.0651 17.7357 34.1224C18.9909 34.1795 19.3918 34.1935 22.5874 34.1935C25.7836 34.1935 26.1834 34.1795 27.4386 34.1224C28.6914 34.0651 29.5475 33.8669 30.2962 33.576C31.0699 33.2756 31.7255 32.8728 32.3793 32.2185C33.0339 31.5647 33.4359 30.9085 33.7375 30.1352C34.0268 29.3871 34.2253 28.5322 34.2842 27.2805C34.3406 26.0259 34.3553 25.626 34.3553 22.4317C34.3553 19.2374 34.3406 18.8365 34.2842 17.5819C34.2253 16.3298 34.0268 15.4751 33.7375 14.7272C33.4359 13.9537 33.0339 13.2975 32.3793 12.6437C31.7247 11.9894 31.0701 11.5876 30.2954 11.2874C29.5453 10.9966 28.6897 10.7983 27.4369 10.741C26.1817 10.6839 25.7821 10.6699 22.5852 10.6699H22.5889ZM21.5334 12.7894C21.7384 12.7891 21.9589 12.7892 22.1969 12.7893L22.5891 12.7894C25.731 12.7894 26.1034 12.8007 27.3442 12.857C28.4915 12.9095 29.1142 13.1011 29.529 13.2621C30.0782 13.4753 30.4697 13.7301 30.8813 14.1418C31.2932 14.5534 31.5481 14.9455 31.7619 15.4944C31.923 15.9085 32.1149 16.5309 32.1672 17.6776C32.2235 18.9175 32.2358 19.29 32.2358 22.4289C32.2358 25.5678 32.2235 25.9403 32.1672 27.1802C32.1147 28.327 31.923 28.9494 31.7619 29.3635C31.5486 29.9124 31.2932 30.3032 30.8813 30.7146C30.4694 31.1263 30.0784 31.3811 29.529 31.5943C29.1147 31.756 28.4915 31.9471 27.3442 31.9996C26.1036 32.0559 25.731 32.0682 22.5891 32.0682C19.4469 32.0682 19.0745 32.0559 17.834 31.9996C16.6866 31.9466 16.0639 31.755 15.6489 31.594C15.0997 31.3809 14.7075 31.126 14.2956 30.7144C13.8837 30.3027 13.6288 29.9116 13.415 29.3625C13.2539 28.9484 13.062 28.326 13.0097 27.1792C12.9534 25.9393 12.9421 25.5669 12.9421 22.426C12.9421 19.2851 12.9534 18.9146 13.0097 17.6747C13.0622 16.5279 13.2539 15.9055 13.415 15.4909C13.6283 14.942 13.8837 14.55 14.2956 14.1383C14.7075 13.7267 15.0997 13.4718 15.6489 13.2582C16.0637 13.0964 16.6866 12.9053 17.834 12.8526C18.9195 12.8036 19.3402 12.7889 21.5334 12.7865V12.7894ZM27.4596 16.1539C27.4596 15.3744 28.0921 14.7429 28.8717 14.7429V14.7424C29.6513 14.7424 30.2838 15.3746 30.2838 16.1539C30.2838 16.9331 29.6513 17.5653 28.8717 17.5653C28.0921 17.5653 27.4596 16.9331 27.4596 16.1539ZM22.5884 16.3912C19.2512 16.3913 16.5455 19.0957 16.5455 22.4313C16.5455 25.767 19.2513 28.4703 22.5887 28.4703C25.926 28.4703 28.6309 25.767 28.6309 22.4313C28.6309 19.0956 25.9258 16.3912 22.5884 16.3912ZM26.5122 22.4321C26.5122 20.2667 24.7559 18.5115 22.5897 18.5115C20.4232 18.5115 18.6671 20.2667 18.6671 22.4321C18.6671 24.5973 20.4232 26.3527 22.5897 26.3527C24.7559 26.3527 26.5122 24.5973 26.5122 22.4321Z" fill="white"/>
</g>
<defs>
<linearGradient id="paint0_linear" x1="11.5554" y1="42.6464" x2="38.1989" y2="5.87871" gradientUnits="userSpaceOnUse">
<stop stop-color="#FEE277"/>
<stop offset="0.28125" stop-color="#F78434"/>
<stop offset="0.5625" stop-color="#F03C48"/>
<stop offset="0.807292" stop-color="#DA2783"/>
<stop offset="1" stop-color="#9F33AA"/>
</linearGradient>
</defs>
</svg>
