<svg width="24" height="25" viewBox="0 0 24 25" fill="none" xmlns="http://www.w3.org/2000/svg">
<path fill-rule="evenodd" clip-rule="evenodd" d="M12 23.2472L12.6577 22.6729C18.1887 17.8433 21 13.6264 21 9.91962C21 4.67028 16.9029 0.919617 12 0.919617C7.09705 0.919617 3 4.67028 3 9.91962C3 13.6264 5.81131 17.8433 11.3423 22.6729L12 23.2472ZM12 20.583C7.30661 16.3532 5 12.7688 5 9.91962C5 5.81622 8.16411 2.91962 12 2.91962C15.8359 2.91962 19 5.81622 19 9.91962C19 12.7688 16.6934 16.3532 12 20.583ZM12 4.91962C14.7614 4.91962 17 7.15819 17 9.91962C17 12.681 14.7614 14.9196 12 14.9196C9.23858 14.9196 7 12.681 7 9.91962C7 7.15819 9.23858 4.91962 12 4.91962ZM9 9.91962C9 8.26276 10.3431 6.91962 12 6.91962C13.6569 6.91962 15 8.26276 15 9.91962C15 11.5765 13.6569 12.9196 12 12.9196C10.3431 12.9196 9 11.5765 9 9.91962Z" fill="#D8AA5B"/>
</svg>
