<svg width="45" height="45" viewBox="0 0 45 45" fill="none" xmlns="http://www.w3.org/2000/svg">
<path d="M0.046875 22.4311C0.046875 10.2515 9.92527 0.37793 22.1109 0.37793C34.2965 0.37793 44.1749 10.2515 44.1749 22.4311C44.1749 34.6107 34.2965 44.4842 22.1109 44.4842C9.92527 44.4842 0.046875 34.6107 0.046875 22.4311Z" fill="#F68634"/>
<path d="M24.498 27.4299L27.7953 30.6116C28.4708 31.2619 28.4708 32.3182 27.7953 32.9692C27.1205 33.6202 26.0268 33.6202 25.3527 32.9692L22.1108 29.8427L18.8717 32.9692C18.5339 33.2944 18.0914 33.4571 17.6488 33.4571C17.2069 33.4571 16.7651 33.2944 16.4273 32.9692C15.7526 32.3182 15.7526 31.2626 16.4266 30.6116L19.7243 27.4299C18.5237 27.166 17.3658 26.707 16.2992 26.0614C15.4921 25.5704 15.2496 24.5418 15.7582 23.7624C16.2653 22.9819 17.3319 22.747 18.1404 23.238C20.5551 24.7035 23.6658 24.7038 26.0819 23.238C26.8904 22.747 27.9566 22.9819 28.4648 23.7624C28.9733 24.5411 28.7302 25.5704 27.9231 26.0614C26.8565 26.7077 25.6986 27.166 24.498 27.4299Z" fill="white"/>
<path fill-rule="evenodd" clip-rule="evenodd" d="M16.1973 17.0955C16.1973 20.2328 18.8428 22.7849 22.0956 22.7849C25.3492 22.7849 27.994 20.2328 27.994 17.0955C27.994 13.957 25.3492 11.4043 22.0956 11.4043C18.8428 11.4043 16.1973 13.957 16.1973 17.0955ZM24.5392 17.0958C24.5392 15.7965 23.4437 14.7399 22.0969 14.7399C20.7512 14.7399 19.6547 15.7965 19.6547 17.0958C19.6547 18.3942 20.7512 19.4514 22.0969 19.4514C23.4437 19.4514 24.5392 18.3942 24.5392 17.0958Z" fill="white"/>
</svg>
