<svg width="45" height="45" viewBox="0 0 45 45" fill="none" xmlns="http://www.w3.org/2000/svg">
<path d="M0.220703 22.4311C0.220703 10.2515 10.0991 0.37793 22.2847 0.37793C34.4703 0.37793 44.3487 10.2515 44.3487 22.4311C44.3487 34.6107 34.4703 44.4842 22.2847 44.4842C10.0991 44.4842 0.220703 34.6107 0.220703 22.4311Z" fill="#55ACEE"/>
<path d="M21.6251 18.3026L21.6714 19.0656L20.8997 18.9722C18.0909 18.614 15.637 17.3993 13.5535 15.3592L12.5349 14.347L12.2725 15.0945C11.7169 16.7608 12.0719 18.5206 13.2294 19.7041C13.8467 20.3582 13.7078 20.4517 12.6429 20.0623C12.2725 19.9377 11.9484 19.8443 11.9175 19.891C11.8095 20 12.1799 21.4172 12.4731 21.9778C12.8744 22.7565 13.6924 23.5196 14.5875 23.9712L15.3437 24.3294L14.4486 24.345C13.5843 24.345 13.5535 24.3605 13.6461 24.6876C13.9547 25.6998 15.174 26.7744 16.5321 27.2416L17.489 27.5686L16.6556 28.067C15.4209 28.7833 13.9702 29.1882 12.5194 29.2194C11.8249 29.235 11.2539 29.2972 11.2539 29.344C11.2539 29.4997 13.1368 30.3718 14.2325 30.7144C17.5198 31.7267 21.4245 31.2906 24.3568 29.562C26.4403 28.3317 28.5238 25.8867 29.4961 23.5196C30.0208 22.2582 30.5456 19.9533 30.5456 18.8476C30.5456 18.1313 30.5919 18.0378 31.4561 17.1813C31.9654 16.6829 32.4439 16.1379 32.5365 15.9821C32.6908 15.6863 32.6754 15.6863 31.8883 15.951C30.5764 16.4182 30.3912 16.3559 31.0394 15.6551C31.5179 15.1568 32.0889 14.2535 32.0889 13.9888C32.0889 13.9421 31.8574 14.0199 31.595 14.1601C31.3172 14.3158 30.6999 14.5494 30.2369 14.6896L29.4035 14.9543L28.6473 14.4404C28.2306 14.1601 27.6441 13.8486 27.3354 13.7552C26.5483 13.5372 25.3445 13.5683 24.6346 13.8175C22.7054 14.5183 21.4862 16.3248 21.6251 18.3026Z" fill="white"/>
</svg>
