<svg width="45" height="45" viewBox="0 0 45 45" fill="none" xmlns="http://www.w3.org/2000/svg">
<path d="M0.349609 22.4311C0.349609 10.2515 10.228 0.37793 22.4136 0.37793C34.5993 0.37793 44.4777 10.2515 44.4777 22.4311C44.4777 34.6107 34.5993 44.4842 22.4136 44.4842C10.228 44.4842 0.349609 34.6107 0.349609 22.4311Z" fill="#4C6C91"/>
<path d="M23.5682 29.6688C23.5682 29.6688 23.9929 29.6225 24.2105 29.3932C24.4096 29.1832 24.4027 28.7868 24.4027 28.7868C24.4027 28.7868 24.3762 26.9358 25.2522 26.6624C26.1155 26.3937 27.224 28.4525 28.4004 29.2442C29.2891 29.8427 29.9636 29.7117 29.9636 29.7117L33.1073 29.6688C33.1073 29.6688 34.751 29.5694 33.9718 28.3011C33.9073 28.1972 33.5171 27.3626 31.635 25.6483C29.6632 23.8537 29.928 24.144 32.3015 21.0394C33.7473 19.1489 34.3251 17.9947 34.1444 17.5011C33.9729 17.0291 32.9093 17.1544 32.9093 17.1544L29.3708 17.1759C29.3708 17.1759 29.1084 17.1409 28.9138 17.2549C28.7239 17.3667 28.6007 17.6276 28.6007 17.6276C28.6007 17.6276 28.0413 19.0901 27.2942 20.3347C25.7184 22.9593 25.0887 23.0982 24.8309 22.9356C24.2312 22.555 24.3808 21.4087 24.3808 20.5944C24.3808 18.05 24.7745 16.9895 23.6153 16.7151C23.2309 16.6236 22.9477 16.5638 21.9635 16.5536C20.7008 16.5412 19.6326 16.5581 19.0271 16.8484C18.6242 17.0415 18.3134 17.4729 18.5033 17.4977C18.737 17.5282 19.2665 17.6378 19.5474 18.0127C19.91 18.4972 19.8973 19.5837 19.8973 19.5837C19.8973 19.5837 20.1057 22.5787 19.4104 22.9503C18.9338 23.2055 18.28 22.6849 16.8745 20.3031C16.1551 19.0834 15.6118 17.7349 15.6118 17.7349C15.6118 17.7349 15.507 17.4831 15.3194 17.3475C15.0926 17.1838 14.7761 17.133 14.7761 17.133L11.4137 17.1544C11.4137 17.1544 10.9084 17.168 10.7231 17.3837C10.5585 17.5745 10.7104 17.9709 10.7104 17.9709C10.7104 17.9709 13.343 24.0141 16.3243 27.06C19.0582 29.8517 22.1615 29.6688 22.1615 29.6688H23.5682Z" fill="white"/>
</svg>
