<svg width="45" height="45" viewBox="0 0 45 45" fill="none" xmlns="http://www.w3.org/2000/svg">
<path d="M0.697266 22.4311C0.697266 10.2515 10.5757 0.37793 22.7613 0.37793C34.9469 0.37793 44.8253 10.2515 44.8253 22.4311C44.8253 34.6107 34.9469 44.4842 22.7613 44.4842C10.5757 44.4842 0.697266 34.6107 0.697266 22.4311Z" fill="#FF0000"/>
<path d="M34.0373 16.9858C33.7666 15.9466 32.9691 15.1282 31.9564 14.8505C30.1212 14.3457 22.7616 14.3457 22.7616 14.3457C22.7616 14.3457 15.402 14.3457 13.5667 14.8505C12.554 15.1282 11.7565 15.9466 11.4858 16.9858C10.9941 18.8694 10.9941 22.7994 10.9941 22.7994C10.9941 22.7994 10.9941 26.7293 11.4858 28.613C11.7565 29.6522 12.554 30.4706 13.5667 30.7485C15.402 31.2531 22.7616 31.2531 22.7616 31.2531C22.7616 31.2531 30.1212 31.2531 31.9564 30.7485C32.9691 30.4706 33.7666 29.6522 34.0373 28.613C34.5291 26.7293 34.5291 22.7994 34.5291 22.7994C34.5291 22.7994 34.5291 18.8694 34.0373 16.9858Z" fill="white"/>
<path d="M20.5547 26.8413V19.4902L26.4384 23.1659L20.5547 26.8413Z" fill="#FF0000"/>
</svg>
